# xmcd
#
# Track frame offsets: 
#        182
#        26952
#        46780
#
# Disc length: 918 seconds
#
# Revision: 1
# Processed by: cddbd v1.5.2PL0 Copyright (c) Steve Scherf et al.
# Submitted via: ExactAudioCopyFreeDBPlugin 1.0
#
DISCID=1e039403
DTITLE=Dire Straits - You And Your Friend
DYEAR=1992
DGENRE=Rock
TTITLE0=You And Your Friend
TTITLE1=Ticket To Heaven
TTITLE2=Badges, Posters, Stickers, T-shirts
EXTD=
EXTT0=
EXTT1=
EXTT2=
PLAYORDER=
